<?xml version="1.0" encoding="UTF-8"?>
<svg id="Ebene_1" xmlns="http://www.w3.org/2000/svg" viewBox="0 0 20 16">
    <defs>
        <style>.cls-1{stroke-width:0px;}</style>
    </defs>
    <polygon fill="currentColor" class="cls-1" points="11.15 2.23 11.15 2.8 11.15 3.38 11.73 3.38 11.73 2.8 11.73 2.23 11.15 2.23"/>
    <polygon fill="currentColor" class="cls-1"
             points="10 3.38 10 2.8 10 2.23 9.42 2.23 8.85 2.23 8.85 2.8 8.27 2.8 8.27 3.38 8.27 3.96 8.85 3.96 8.85 4.54 8.27 4.54 8.27 5.11 8.85 5.11 9.42 5.11 9.42 4.54 9.42 3.96 10 3.96 10.58 3.96 10.58 3.38 10 3.38"/>
    <polygon fill="currentColor" class="cls-1"
             points="11.15 3.96 10.58 3.96 10.58 4.54 10 4.54 10 5.11 10.58 5.11 10.58 5.69 11.15 5.69 11.15 5.11 11.15 4.54 11.73 4.54 11.73 3.96 11.15 3.96"/>
    <rect fill="currentColor" class="cls-1" x="8.85" y="5.69" width=".58" height=".58"/>
    <rect fill="currentColor" class="cls-1" x="10" y="5.69" width=".58" height=".58"/>
    <rect fill="currentColor" class="cls-1" x="9.42" y="6.27" width=".58" height=".58"/>
    <polygon fill="currentColor" class="cls-1"
             points="11.73 6.27 11.73 5.69 11.15 5.69 11.15 6.27 10.58 6.27 10.58 6.84 11.15 6.84 11.73 6.84 12.31 6.84 12.31 6.27 11.73 6.27"/>
    <rect fill="currentColor" class="cls-1" x="12.89" y="6.27" width=".58" height=".58"/>
    <rect fill="currentColor" class="cls-1" x="14.04" y="6.27" width=".58" height=".58"/>
    <rect fill="currentColor" class="cls-1" x="8.27" y="6.27" width=".58" height=".58"/>
    <rect fill="currentColor" class="cls-1" x="4.23" y="6.84" width=".58" height=".58"/>
    <polygon fill="currentColor" class="cls-1"
             points="7.69 6.84 7.69 6.27 7.11 6.27 7.11 6.84 6.54 6.84 6.54 6.27 5.96 6.27 5.38 6.27 4.8 6.27 4.8 6.84 5.38 6.84 5.96 6.84 5.96 7.42 5.96 8 5.38 8 5.38 7.42 4.8 7.42 4.8 8 4.23 8 4.23 8.58 4.8 8.58 5.38 8.58 5.96 8.58 5.96 9.15 5.38 9.15 4.8 9.15 4.8 9.73 5.38 9.73 5.96 9.73 6.54 9.73 6.54 9.15 6.54 8.58 7.11 8.58 7.11 9.15 7.69 9.15 7.69 9.73 8.27 9.73 8.27 9.15 8.85 9.15 8.85 8.58 8.27 8.58 8.27 8 8.85 8 8.85 7.42 8.27 7.42 8.27 6.84 7.69 6.84"/>
    <rect fill="currentColor" class="cls-1" x="8.27" y="9.73" width=".58" height=".58"/>
    <rect fill="currentColor" class="cls-1" x="8.27" y="10.89" width=".58" height=".58"/>
    <rect fill="currentColor" class="cls-1" x="8.27" y="12.04" width=".58" height=".58"/>
    <path fill="currentColor"

           class="cls-1"
          d="m13.19,11.77c-1.27.8-2.61.37-3.28-.52-.73-.96-.66-2.29.23-3.15.87-.84,2.09-.94,3.08-.21.91.66,1.34,2.03.5,3.35.15.12.33.25.49.4.48.47.95.96,1.44,1.43.23.23.06.36-.09.52-.15.16-.28.28-.49.07-.62-.63-1.25-1.26-1.89-1.89Zm-1.37-.26c.93,0,1.69-.76,1.69-1.69,0-.85-.65-1.75-1.79-1.71-.85.03-1.61.7-1.62,1.7-.01.94.77,1.71,1.71,1.7Z"/>
    <path fill="currentColor"

          class="cls-1" d="m4.23,5.65v-3.42h3.43v3.42h-3.43Zm2.87-2.85h-2.29v2.28h2.29v-2.28Z"/>
    <path fill="currentColor"

          class="cls-1" d="m4.23,10.33h3.43v3.43h-3.43v-3.43Zm2.86,2.86v-2.28h-2.3v2.28h2.3Z"/>
    <path fill="currentColor"

          class="cls-1" d="m15.77,5.65h-3.43v-3.43h3.43v3.43Zm-.57-2.86h-2.29v2.28h2.29v-2.28Z"/>
    <path fill="currentColor"

          class="cls-1" d="m6.5,4.5h-1.11v-1.11h1.11v1.11Z"/>
    <path fill="currentColor"

          class="cls-1" d="m6.51,11.5v1.11h-1.12v-1.11h1.12Z"/>
    <path fill="currentColor"

          class="cls-1" d="m13.5,3.37h1.1v1.12h-1.1v-1.12Z"/>
    <path fill="currentColor"

          class="cls-1"
          d="m17.99,4.5h-.71c0-.67,0-1.32,0-1.97,0-1.13-.68-1.8-1.79-1.8-.65,0-1.3,0-1.97,0V0c.08,0,.17,0,.26,0,.6,0,1.21,0,1.81,0,1.31,0,2.32.92,2.4,2.23.04.74,0,1.49,0,2.27Z"/>
    <path fill="currentColor"

          class="cls-1"
          d="m13.5,16v-.72c.65,0,1.29,0,1.93,0,.19,0,.38,0,.56-.04.75-.17,1.27-.81,1.28-1.6.01-.6,0-1.21,0-1.81,0-.1,0-.2,0-.32h.67s.03.03.03.04c0,.82.04,1.65-.03,2.46-.09,1-.95,1.82-1.98,1.97-.17.02-.34.02-.51.02-.65,0-1.3,0-1.97,0Z"/>
    <path fill="currentColor"

          class="cls-1"
          d="m6.5,0v.72c-.32,0-.63,0-.93,0-.39,0-.77,0-1.16,0-.97.01-1.67.71-1.69,1.68,0,.69,0,1.38,0,2.09h-.72c0-.11,0-.21,0-.31,0-.61,0-1.23,0-1.84C2.03,1.02,3.05.01,4.38,0c.7,0,1.39,0,2.12,0Z"/>
    <path fill="currentColor"

          class="cls-1"
          d="m6.49,15.31v.65c-.85,0-1.7.07-2.52-.02-1.01-.11-1.78-.94-1.94-1.92-.03-.16-.03-.32-.03-.48,0-.68,0-1.36,0-2.05h.72c0,.71,0,1.41,0,2.1,0,.8.52,1.46,1.28,1.63.2.04.41.04.62.04.6,0,1.21,0,1.81,0,.02,0,.03.01.07.03Z"/>
</svg>