<?xml version="1.0" encoding="utf-8"?>
<!-- Generator: Adobe Illustrator 24.3.0, SVG Export Plug-In . SVG Version: 6.00 Build 0)  -->
<svg version="1.1" id="Ebene_1" xmlns="http://www.w3.org/2000/svg" xmlns:xlink="http://www.w3.org/1999/xlink" x="0px" y="0px"
     viewBox="0 0 42.54 44.88" style="enable-background:new 0 0 42.54 44.88;" xml:space="preserve">
<style type="text/css">
	.st0{fill:#0871B7;}
	.st1{fill:#FFFFFF;}
</style>
    <g>
	<rect class="st0" width="42.52" height="44.88"/>
        <path class="st1" d="M4.72,4.75h2.6v16.5h-2.6V4.75z M6.31,18.76h3.2c0.76,0,1.34-0.2,1.75-0.59c0.41-0.39,0.62-0.96,0.62-1.69
		V9.52c0-0.73-0.21-1.3-0.62-1.69c-0.41-0.39-1-0.59-1.75-0.59h-3.2V4.75h3.22c1.05,0,1.95,0.19,2.7,0.56
		c0.75,0.37,1.32,0.91,1.71,1.62c0.39,0.71,0.59,1.56,0.59,2.57v7.01c0,0.98-0.19,1.83-0.58,2.55c-0.39,0.71-0.96,1.26-1.71,1.63
		c-0.75,0.37-1.66,0.56-2.72,0.56H6.31V18.76z"/>
        <path class="st1" d="M19.11,20.81c-0.76-0.41-1.34-0.99-1.75-1.75c-0.41-0.76-0.62-1.65-0.62-2.67V9.62c0-1.03,0.21-1.92,0.62-2.68
		c0.41-0.76,1-1.34,1.75-1.75c0.76-0.41,1.65-0.61,2.67-0.61c1.02,0,1.91,0.2,2.67,0.61c0.76,0.41,1.34,0.99,1.75,1.75
		c0.41,0.76,0.62,1.65,0.62,2.68v6.76c0,1.02-0.21,1.91-0.62,2.67c-0.41,0.76-1,1.34-1.75,1.75c-0.76,0.41-1.65,0.61-2.67,0.61
		C20.76,21.42,19.87,21.22,19.11,20.81z M23.05,18.55c0.36-0.2,0.64-0.5,0.83-0.87c0.19-0.38,0.28-0.82,0.28-1.34V9.65
		c0-0.51-0.09-0.95-0.28-1.33c-0.19-0.38-0.47-0.67-0.83-0.87c-0.36-0.2-0.79-0.31-1.27-0.31s-0.91,0.1-1.27,0.31
		c-0.36,0.2-0.64,0.5-0.83,0.87c-0.19,0.38-0.29,0.82-0.29,1.33v6.68c0,0.51,0.1,0.96,0.29,1.34c0.19,0.38,0.47,0.67,0.83,0.87
		c0.36,0.2,0.79,0.31,1.27,0.31S22.69,18.75,23.05,18.55z"/>
        <path class="st1" d="M31.29,20.8c-0.73-0.42-1.3-1.01-1.69-1.78s-0.58-1.69-0.58-2.77V9.77c0-1.07,0.19-2,0.58-2.77
		c0.39-0.78,0.95-1.37,1.69-1.79c0.73-0.42,1.6-0.62,2.61-0.62c0.99,0,1.83,0.19,2.53,0.58c0.69,0.39,1.23,0.98,1.62,1.76
		s0.62,1.76,0.7,2.92H36.1c-0.05-0.59-0.17-1.09-0.36-1.49c-0.19-0.4-0.44-0.7-0.75-0.9c-0.31-0.2-0.67-0.3-1.09-0.3
		c-0.46,0-0.86,0.11-1.19,0.32c-0.33,0.21-0.58,0.51-0.77,0.9c-0.18,0.39-0.27,0.85-0.27,1.39v6.48c0,0.54,0.09,1,0.27,1.4
		c0.18,0.39,0.44,0.69,0.77,0.9c0.33,0.2,0.72,0.31,1.19,0.31c0.42,0,0.79-0.1,1.1-0.3c0.31-0.2,0.55-0.5,0.74-0.9
		c0.19-0.4,0.31-0.9,0.36-1.49h2.64c-0.08,1.16-0.31,2.13-0.7,2.92c-0.39,0.79-0.94,1.37-1.63,1.76s-1.53,0.58-2.51,0.58
		C32.89,21.42,32.02,21.21,31.29,20.8z"/>
        <path class="st1" d="M4.72,23.62h9.83v1.52H4.72V23.62z M8.81,24.63h1.65v15.49H8.81V24.63z"/>
        <path class="st1" d="M20.29,23.62h1.97l4.95,16.5H25.4l-4.12-14.73l-4.12,14.73h-1.82L20.29,23.62z M17.81,34.6h7.15v1.52h-7.15
		V34.6z"/>
        <path class="st1" d="M37.82,31.46v3.62c0,1.14-0.18,2.09-0.55,2.87c-0.37,0.78-0.91,1.36-1.64,1.75c-0.73,0.39-1.62,0.59-2.68,0.59
		c-1.07,0-1.98-0.19-2.72-0.56c-0.74-0.37-1.29-0.92-1.66-1.65c-0.37-0.73-0.56-1.63-0.56-2.7v-6.74c0-1.13,0.18-2.09,0.55-2.86
		c0.37-0.77,0.91-1.35,1.64-1.75s1.62-0.59,2.68-0.59c1,0,1.84,0.18,2.51,0.54c0.68,0.36,1.21,0.91,1.59,1.63
		c0.39,0.72,0.62,1.63,0.69,2.73h-1.77c-0.07-0.74-0.23-1.36-0.48-1.86c-0.25-0.5-0.59-0.87-1.02-1.12
		c-0.42-0.25-0.93-0.37-1.53-0.37c-0.7,0-1.3,0.14-1.78,0.42c-0.48,0.28-0.85,0.69-1.09,1.23c-0.24,0.54-0.36,1.21-0.36,2.01v6.74
		c0,0.73,0.12,1.35,0.37,1.84c0.25,0.5,0.62,0.87,1.11,1.13c0.49,0.26,1.1,0.39,1.82,0.39c0.7,0,1.29-0.13,1.76-0.4
		c0.47-0.27,0.82-0.67,1.06-1.2c0.24-0.53,0.36-1.2,0.36-2.01v-2.16h-3.18v-1.51H37.82z"/>
        <rect x="0" y="4.73" class="st1" width="2.36" height="2.36"/>
        <rect x="0" y="37.78" class="st1" width="2.36" height="2.36"/>
        <rect x="40.15" y="4.73" class="st1" width="2.36" height="2.36"/>
        <rect x="40.18" y="37.78" class="st1" width="2.36" height="2.36"/>
        <rect x="40.15" y="18.9" class="st1" width="2.36" height="2.36"/>
        <rect x="0" y="18.9" class="st1" width="2.36" height="2.36"/>
</g>
</svg>
