<?xml version="1.0" encoding="UTF-8" standalone="no"?>
<svg
   xmlns:dc="http://purl.org/dc/elements/1.1/"
   xmlns:cc="http://creativecommons.org/ns#"
   xmlns:rdf="http://www.w3.org/1999/02/22-rdf-syntax-ns#"
   xmlns:svg="http://www.w3.org/2000/svg"
   xmlns="http://www.w3.org/2000/svg"
   xmlns:sodipodi="http://sodipodi.sourceforge.net/DTD/sodipodi-0.dtd"
   xmlns:inkscape="http://www.inkscape.org/namespaces/inkscape"
   version="1.1"
   id="Ebene_1"
   x="0px"
   y="0px"
   viewBox="0 0 82.68 21.26"
   style="enable-background:new 0 0 82.68 21.26;"
   xml:space="preserve"
   sodipodi:docname="logo_inverse.svg"
   inkscape:version="1.0.1 (c497b03c, 2020-09-10)"><metadata
   id="metadata192"><rdf:RDF><cc:Work
       rdf:about=""><dc:format>image/svg+xml</dc:format><dc:type
         rdf:resource="http://purl.org/dc/dcmitype/StillImage" /><dc:title></dc:title></cc:Work></rdf:RDF></metadata><defs
   id="defs190">
	
	
	
	
	
	
	
</defs><sodipodi:namedview
   pagecolor="#ffffff"
   bordercolor="#666666"
   borderopacity="1"
   objecttolerance="10"
   gridtolerance="10"
   guidetolerance="10"
   inkscape:pageopacity="0"
   inkscape:pageshadow="2"
   inkscape:window-width="2192"
   inkscape:window-height="1107"
   id="namedview188"
   showgrid="false"
   inkscape:pagecheckerboard="true"
   inkscape:zoom="12.68747"
   inkscape:cx="24.788236"
   inkscape:cy="10.63"
   inkscape:window-x="0"
   inkscape:window-y="23"
   inkscape:window-maximized="0"
   inkscape:current-layer="Ebene_1" />
<style
   type="text/css"
   id="style157">
	.st0{fill:#FFFFFF;}
	.st1{fill:#0871B7;}
</style>
<g
   id="g173"
   style="opacity:1">
		<path
   class="st1"
   d="m 7.09,2.38 h 2.6 v 16.5 H 7.09 Z M 8.68,16.4 h 3.2 c 0.76,0 1.34,-0.2 1.75,-0.59 0.41,-0.39 0.62,-0.96 0.62,-1.69 V 7.15 c 0,-0.73 -0.21,-1.3 -0.62,-1.69 -0.41,-0.39 -1,-0.59 -1.75,-0.59 H 8.68 V 2.38 h 3.22 c 1.05,0 1.95,0.19 2.7,0.56 0.75,0.37 1.32,0.91 1.71,1.62 0.39,0.71 0.59,1.56 0.59,2.57 v 7.01 c 0,0.98 -0.19,1.83 -0.58,2.55 -0.39,0.71 -0.96,1.26 -1.71,1.63 -0.75,0.37 -1.66,0.56 -2.72,0.56 H 8.68 Z"
   id="path161" />
		<path
   class="st1"
   d="M 21.48,18.44 C 20.72,18.03 20.14,17.45 19.73,16.69 19.32,15.93 19.11,15.04 19.11,14.02 V 7.25 c 0,-1.03 0.21,-1.92 0.62,-2.68 0.41,-0.76 1,-1.34 1.75,-1.75 0.76,-0.41 1.65,-0.61 2.67,-0.61 1.02,0 1.91,0.2 2.67,0.61 0.76,0.41 1.34,0.99 1.75,1.75 0.41,0.76 0.62,1.65 0.62,2.68 v 6.76 c 0,1.02 -0.21,1.91 -0.62,2.67 -0.41,0.76 -1,1.34 -1.75,1.75 -0.76,0.41 -1.65,0.61 -2.67,0.61 -1.03,0.01 -1.92,-0.19 -2.67,-0.6 z m 3.93,-2.26 c 0.36,-0.2 0.64,-0.5 0.83,-0.87 0.19,-0.38 0.28,-0.82 0.28,-1.34 V 7.28 C 26.52,6.77 26.43,6.33 26.24,5.95 26.05,5.57 25.77,5.28 25.41,5.08 25.05,4.88 24.62,4.77 24.14,4.77 c -0.48,0 -0.91,0.1 -1.27,0.31 -0.36,0.2 -0.64,0.5 -0.83,0.87 -0.19,0.38 -0.29,0.82 -0.29,1.33 v 6.68 c 0,0.51 0.1,0.96 0.29,1.34 0.19,0.38 0.47,0.67 0.83,0.87 0.36,0.2 0.79,0.31 1.27,0.31 0.48,0 0.91,-0.09 1.27,-0.3 z"
   id="path163" />
		<path
   class="st1"
   d="m 33.65,18.43 c -0.73,-0.42 -1.3,-1.01 -1.69,-1.78 -0.39,-0.77 -0.58,-1.69 -0.58,-2.77 V 7.4 c 0,-1.07 0.19,-2 0.58,-2.77 0.39,-0.78 0.95,-1.37 1.69,-1.79 0.74,-0.42 1.6,-0.62 2.61,-0.62 0.99,0 1.83,0.19 2.52,0.58 0.69,0.39 1.23,0.98 1.62,1.76 0.39,0.78 0.62,1.76 0.7,2.92 H 38.46 C 38.41,6.89 38.29,6.39 38.1,5.99 37.91,5.59 37.66,5.29 37.35,5.09 37.04,4.89 36.68,4.79 36.26,4.79 35.8,4.79 35.4,4.9 35.07,5.11 34.74,5.32 34.49,5.62 34.3,6.01 34.12,6.4 34.03,6.86 34.03,7.4 v 6.48 c 0,0.54 0.09,1 0.27,1.4 0.18,0.39 0.44,0.69 0.77,0.9 0.33,0.2 0.72,0.31 1.19,0.31 0.42,0 0.79,-0.1 1.1,-0.3 0.31,-0.2 0.55,-0.5 0.74,-0.9 0.19,-0.4 0.31,-0.9 0.36,-1.49 h 2.64 c -0.08,1.16 -0.31,2.13 -0.7,2.92 -0.39,0.79 -0.94,1.37 -1.63,1.76 -0.69,0.39 -1.53,0.58 -2.51,0.58 -1,-0.01 -1.87,-0.22 -2.61,-0.63 z"
   id="path165" />
		<path
   class="st1"
   d="M 43.47,2.38 H 53.3 V 3.9 h -9.83 z m 4.08,1.01 h 1.65 v 15.49 h -1.65 z"
   id="path167" />
		<path
   class="st1"
   d="m 57.96,2.38 h 1.97 l 4.95,16.5 H 63.06 L 58.94,4.15 54.82,18.88 H 53 Z m -2.49,10.98 h 7.15 v 1.52 h -7.15 z"
   id="path169" />
		<path
   class="st1"
   d="m 75.59,10.22 v 3.62 c 0,1.14 -0.18,2.09 -0.55,2.87 -0.37,0.78 -0.91,1.36 -1.64,1.75 -0.73,0.39 -1.62,0.59 -2.68,0.59 -1.07,0 -1.98,-0.19 -2.72,-0.56 -0.74,-0.37 -1.29,-0.92 -1.66,-1.65 -0.37,-0.73 -0.56,-1.63 -0.56,-2.7 V 7.41 c 0,-1.13 0.18,-2.09 0.55,-2.86 0.37,-0.77 0.91,-1.35 1.64,-1.75 0.73,-0.4 1.62,-0.59 2.68,-0.59 1,0 1.84,0.18 2.51,0.54 0.68,0.36 1.21,0.91 1.59,1.63 0.39,0.72 0.62,1.63 0.69,2.73 H 73.67 C 73.6,6.37 73.44,5.75 73.19,5.25 72.94,4.75 72.6,4.38 72.17,4.13 71.75,3.88 71.24,3.76 70.64,3.76 c -0.7,0 -1.3,0.14 -1.78,0.42 -0.48,0.28 -0.85,0.69 -1.09,1.23 -0.24,0.54 -0.36,1.21 -0.36,2.01 v 6.74 c 0,0.73 0.12,1.35 0.37,1.84 0.25,0.5 0.62,0.87 1.11,1.13 0.49,0.26 1.1,0.39 1.82,0.39 0.7,0 1.29,-0.13 1.76,-0.4 0.47,-0.27 0.82,-0.67 1.06,-1.2 0.24,-0.53 0.36,-1.2 0.36,-2.01 v -2.16 h -3.18 v -1.51 h 4.88 z"
   id="path171" />
	</g><rect
   x="2.3599999"
   y="2.3599999"
   class="st1"
   width="2.3599999"
   height="2.3599999"
   id="rect175"
   style="opacity:1" /><rect
   x="2.3599999"
   y="16.540001"
   class="st1"
   width="2.3599999"
   height="2.3599999"
   id="rect177"
   style="opacity:1" /><rect
   x="77.949997"
   y="2.3599999"
   class="st1"
   width="2.3599999"
   height="2.3599999"
   id="rect179"
   style="opacity:1" /><rect
   x="77.949997"
   y="16.540001"
   class="st1"
   width="2.3599999"
   height="2.3599999"
   id="rect181"
   style="opacity:1" /><rect
   x="42.52"
   y="16.540001"
   class="st1"
   width="2.3599999"
   height="2.3599999"
   id="rect183"
   style="opacity:1" />
</svg>
