<?xml version="1.0" encoding="utf-8"?>
<!-- Generator: Adobe Illustrator 24.3.0, SVG Export Plug-In . SVG Version: 6.00 Build 0)  -->
<svg version="1.1" id="Ebene_1" xmlns="http://www.w3.org/2000/svg" xmlns:xlink="http://www.w3.org/1999/xlink" x="0px" y="0px"
	 viewBox="0 0 82.68 21.26" style="enable-background:new 0 0 82.68 21.26;" xml:space="preserve">
<style type="text/css">
	.st0{fill:#0871B7;}
	.st1{fill:#FFFFFF;}
</style>
<g>
	<rect class="st0" width="82.68" height="21.26"/>
	<g>
		<path class="st1" d="M7.09,2.38h2.6v16.5h-2.6V2.38z M8.68,16.4h3.2c0.76,0,1.34-0.2,1.75-0.59c0.41-0.39,0.62-0.96,0.62-1.69
			V7.15c0-0.73-0.21-1.3-0.62-1.69c-0.41-0.39-1-0.59-1.75-0.59h-3.2V2.38h3.22c1.05,0,1.95,0.19,2.7,0.56
			c0.75,0.37,1.32,0.91,1.71,1.62c0.39,0.71,0.59,1.56,0.59,2.57v7.01c0,0.98-0.19,1.83-0.58,2.55c-0.39,0.71-0.96,1.26-1.71,1.63
			c-0.75,0.37-1.66,0.56-2.72,0.56H8.68V16.4z"/>
		<path class="st1" d="M21.48,18.44c-0.76-0.41-1.34-0.99-1.75-1.75c-0.41-0.76-0.62-1.65-0.62-2.67V7.25
			c0-1.03,0.21-1.92,0.62-2.68c0.41-0.76,1-1.34,1.75-1.75c0.76-0.41,1.65-0.61,2.67-0.61c1.02,0,1.91,0.2,2.67,0.61
			s1.34,0.99,1.75,1.75c0.41,0.76,0.62,1.65,0.62,2.68v6.76c0,1.02-0.21,1.91-0.62,2.67c-0.41,0.76-1,1.34-1.75,1.75
			c-0.76,0.41-1.65,0.61-2.67,0.61C23.12,19.05,22.23,18.85,21.48,18.44z M25.41,16.18c0.36-0.2,0.64-0.5,0.83-0.87
			c0.19-0.38,0.28-0.82,0.28-1.34V7.28c0-0.51-0.09-0.95-0.28-1.33c-0.19-0.38-0.47-0.67-0.83-0.87c-0.36-0.2-0.79-0.31-1.27-0.31
			s-0.91,0.1-1.27,0.31c-0.36,0.2-0.64,0.5-0.83,0.87c-0.19,0.38-0.29,0.82-0.29,1.33v6.68c0,0.51,0.1,0.96,0.29,1.34
			c0.19,0.38,0.47,0.67,0.83,0.87c0.36,0.2,0.79,0.31,1.27,0.31S25.05,16.39,25.41,16.18z"/>
		<path class="st1" d="M33.65,18.43c-0.73-0.42-1.3-1.01-1.69-1.78s-0.58-1.69-0.58-2.77V7.4c0-1.07,0.19-2,0.58-2.77
			c0.39-0.78,0.95-1.37,1.69-1.79s1.6-0.62,2.61-0.62c0.99,0,1.83,0.19,2.52,0.58s1.23,0.98,1.62,1.76s0.62,1.76,0.7,2.92h-2.64
			c-0.05-0.59-0.17-1.09-0.36-1.49c-0.19-0.4-0.44-0.7-0.75-0.9c-0.31-0.2-0.67-0.3-1.09-0.3c-0.46,0-0.86,0.11-1.19,0.32
			c-0.33,0.21-0.58,0.51-0.77,0.9c-0.18,0.39-0.27,0.85-0.27,1.39v6.48c0,0.54,0.09,1,0.27,1.4c0.18,0.39,0.44,0.69,0.77,0.9
			c0.33,0.2,0.72,0.31,1.19,0.31c0.42,0,0.79-0.1,1.1-0.3c0.31-0.2,0.55-0.5,0.74-0.9s0.31-0.9,0.36-1.49h2.64
			c-0.08,1.16-0.31,2.13-0.7,2.92c-0.39,0.79-0.94,1.37-1.63,1.76s-1.53,0.58-2.51,0.58C35.26,19.05,34.39,18.84,33.65,18.43z"/>
		<path class="st1" d="M43.47,2.38h9.83V3.9h-9.83V2.38z M47.55,3.39h1.65v15.49h-1.65V3.39z"/>
		<path class="st1" d="M57.96,2.38h1.97l4.95,16.5h-1.82L58.94,4.15l-4.12,14.73h-1.82L57.96,2.38z M55.47,13.36h7.15v1.52h-7.15
			V13.36z"/>
		<path class="st1" d="M75.59,10.22v3.62c0,1.14-0.18,2.09-0.55,2.87c-0.37,0.78-0.91,1.36-1.64,1.75
			c-0.73,0.39-1.62,0.59-2.68,0.59c-1.07,0-1.98-0.19-2.72-0.56c-0.74-0.37-1.29-0.92-1.66-1.65c-0.37-0.73-0.56-1.63-0.56-2.7V7.41
			c0-1.13,0.18-2.09,0.55-2.86c0.37-0.77,0.91-1.35,1.64-1.75s1.62-0.59,2.68-0.59c1,0,1.84,0.18,2.51,0.54
			c0.68,0.36,1.21,0.91,1.59,1.63c0.39,0.72,0.62,1.63,0.69,2.73h-1.77c-0.07-0.74-0.23-1.36-0.48-1.86
			c-0.25-0.5-0.59-0.87-1.02-1.12c-0.42-0.25-0.93-0.37-1.53-0.37c-0.7,0-1.3,0.14-1.78,0.42c-0.48,0.28-0.85,0.69-1.09,1.23
			c-0.24,0.54-0.36,1.21-0.36,2.01v6.74c0,0.73,0.12,1.35,0.37,1.84c0.25,0.5,0.62,0.87,1.11,1.13c0.49,0.26,1.1,0.39,1.82,0.39
			c0.7,0,1.29-0.13,1.76-0.4c0.47-0.27,0.82-0.67,1.06-1.2c0.24-0.53,0.36-1.2,0.36-2.01v-2.16h-3.18v-1.51H75.59z"/>
	</g>
	<rect x="2.36" y="2.36" class="st1" width="2.36" height="2.36"/>
	<rect x="2.36" y="16.54" class="st1" width="2.36" height="2.36"/>
	<rect x="77.95" y="2.36" class="st1" width="2.36" height="2.36"/>
	<rect x="77.95" y="16.54" class="st1" width="2.36" height="2.36"/>
	<rect x="42.52" y="16.54" class="st1" width="2.36" height="2.36"/>
</g>
</svg>
