<?xml version="1.0" encoding="UTF-8" standalone="no"?>
<svg
   xmlns:dc="http://purl.org/dc/elements/1.1/"
   xmlns:cc="http://creativecommons.org/ns#"
   xmlns:rdf="http://www.w3.org/1999/02/22-rdf-syntax-ns#"
   xmlns:svg="http://www.w3.org/2000/svg"
   xmlns="http://www.w3.org/2000/svg"
   xmlns:sodipodi="http://sodipodi.sourceforge.net/DTD/sodipodi-0.dtd"
   xmlns:inkscape="http://www.inkscape.org/namespaces/inkscape"
   version="1.1"
   id="Ebene_1"
   x="0px"
   y="0px"
   viewBox="0 0 42.54 44.88"
   style="enable-background:new 0 0 42.54 44.88;"
   xml:space="preserve"
   sodipodi:docname="logo_small_inverse.svg"
   inkscape:version="1.0.1 (c497b03c, 2020-09-10)"><metadata
   id="metadata1141"><rdf:RDF><cc:Work
       rdf:about=""><dc:format>image/svg+xml</dc:format><dc:type
         rdf:resource="http://purl.org/dc/dcmitype/StillImage" /><dc:title></dc:title></cc:Work></rdf:RDF></metadata><defs
   id="defs1139">
	
        
        
        
        
        
        
        
        
        
        
        
        
</defs><sodipodi:namedview
   pagecolor="#ffffff"
   bordercolor="#666666"
   borderopacity="1"
   objecttolerance="10"
   gridtolerance="10"
   guidetolerance="10"
   inkscape:pageopacity="0"
   inkscape:pageshadow="2"
   inkscape:window-width="1595"
   inkscape:window-height="1001"
   id="namedview1137"
   showgrid="false"
   inkscape:pagecheckerboard="true"
   inkscape:zoom="12.045456"
   inkscape:cx="21.27"
   inkscape:cy="22.440001"
   inkscape:window-x="0"
   inkscape:window-y="23"
   inkscape:window-maximized="0"
   inkscape:current-layer="Ebene_1" />
<style
   type="text/css"
   id="style1106">
	.st0{fill:#FFFFFF;}
	.st1{fill:#0871B7;}
</style>
    <path
   class="st1"
   d="m 4.72,4.75 h 2.6 v 16.5 h -2.6 z m 1.59,14.01 h 3.2 c 0.76,0 1.34,-0.2 1.75,-0.59 0.41,-0.39 0.62,-0.96 0.62,-1.69 V 9.52 c 0,-0.73 -0.21,-1.3 -0.62,-1.69 -0.41,-0.39 -1,-0.59 -1.75,-0.59 H 6.31 V 4.75 h 3.22 c 1.05,0 1.95,0.19 2.7,0.56 0.75,0.37 1.32,0.91 1.71,1.62 0.39,0.71 0.59,1.56 0.59,2.57 v 7.01 c 0,0.98 -0.19,1.83 -0.58,2.55 -0.39,0.71 -0.96,1.26 -1.71,1.63 -0.75,0.37 -1.66,0.56 -2.72,0.56 H 6.31 Z"
   id="path1110" /><path
   class="st1"
   d="M 19.11,20.81 C 18.35,20.4 17.77,19.82 17.36,19.06 16.95,18.3 16.74,17.41 16.74,16.39 V 9.62 c 0,-1.03 0.21,-1.92 0.62,-2.68 0.41,-0.76 1,-1.34 1.75,-1.75 0.76,-0.41 1.65,-0.61 2.67,-0.61 1.02,0 1.91,0.2 2.67,0.61 0.76,0.41 1.34,0.99 1.75,1.75 0.41,0.76 0.62,1.65 0.62,2.68 v 6.76 c 0,1.02 -0.21,1.91 -0.62,2.67 -0.41,0.76 -1,1.34 -1.75,1.75 -0.76,0.41 -1.65,0.61 -2.67,0.61 -1.02,0.01 -1.91,-0.19 -2.67,-0.6 z m 3.94,-2.26 c 0.36,-0.2 0.64,-0.5 0.83,-0.87 0.19,-0.38 0.28,-0.82 0.28,-1.34 V 9.65 C 24.16,9.14 24.07,8.7 23.88,8.32 23.69,7.94 23.41,7.65 23.05,7.45 22.69,7.25 22.26,7.14 21.78,7.14 c -0.48,0 -0.91,0.1 -1.27,0.31 -0.36,0.2 -0.64,0.5 -0.83,0.87 -0.19,0.38 -0.29,0.82 -0.29,1.33 v 6.68 c 0,0.51 0.1,0.96 0.29,1.34 0.19,0.38 0.47,0.67 0.83,0.87 0.36,0.2 0.79,0.31 1.27,0.31 0.48,0 0.91,-0.1 1.27,-0.3 z"
   id="path1112" /><path
   class="st1"
   d="M 31.29,20.8 C 30.56,20.38 29.99,19.79 29.6,19.02 29.21,18.25 29.02,17.33 29.02,16.25 V 9.77 c 0,-1.07 0.19,-2 0.58,-2.77 0.39,-0.78 0.95,-1.37 1.69,-1.79 0.73,-0.42 1.6,-0.62 2.61,-0.62 0.99,0 1.83,0.19 2.53,0.58 0.69,0.39 1.23,0.98 1.62,1.76 0.39,0.78 0.62,1.76 0.7,2.92 H 36.1 C 36.05,9.26 35.93,8.76 35.74,8.36 35.55,7.96 35.3,7.66 34.99,7.46 34.68,7.26 34.32,7.16 33.9,7.16 c -0.46,0 -0.86,0.11 -1.19,0.32 -0.33,0.21 -0.58,0.51 -0.77,0.9 -0.18,0.39 -0.27,0.85 -0.27,1.39 v 6.48 c 0,0.54 0.09,1 0.27,1.4 0.18,0.39 0.44,0.69 0.77,0.9 0.33,0.2 0.72,0.31 1.19,0.31 0.42,0 0.79,-0.1 1.1,-0.3 0.31,-0.2 0.55,-0.5 0.74,-0.9 0.19,-0.4 0.31,-0.9 0.36,-1.49 h 2.64 c -0.08,1.16 -0.31,2.13 -0.7,2.92 -0.39,0.79 -0.94,1.37 -1.63,1.76 -0.69,0.39 -1.53,0.58 -2.51,0.58 -1.01,-0.01 -1.88,-0.22 -2.61,-0.63 z"
   id="path1114" /><path
   class="st1"
   d="m 4.72,23.62 h 9.83 v 1.52 H 4.72 Z m 4.09,1.01 h 1.65 V 40.12 H 8.81 Z"
   id="path1116" /><path
   class="st1"
   d="m 20.29,23.62 h 1.97 l 4.95,16.5 H 25.4 L 21.28,25.39 17.16,40.12 H 15.34 Z M 17.81,34.6 h 7.15 v 1.52 h -7.15 z"
   id="path1118" /><path
   class="st1"
   d="m 37.82,31.46 v 3.62 c 0,1.14 -0.18,2.09 -0.55,2.87 -0.37,0.78 -0.91,1.36 -1.64,1.75 -0.73,0.39 -1.62,0.59 -2.68,0.59 -1.07,0 -1.98,-0.19 -2.72,-0.56 -0.74,-0.37 -1.29,-0.92 -1.66,-1.65 -0.37,-0.73 -0.56,-1.63 -0.56,-2.7 v -6.74 c 0,-1.13 0.18,-2.09 0.55,-2.86 0.37,-0.77 0.91,-1.35 1.64,-1.75 0.73,-0.4 1.62,-0.59 2.68,-0.59 1,0 1.84,0.18 2.51,0.54 0.68,0.36 1.21,0.91 1.59,1.63 0.39,0.72 0.62,1.63 0.69,2.73 H 35.9 c -0.07,-0.74 -0.23,-1.36 -0.48,-1.86 -0.25,-0.5 -0.59,-0.87 -1.02,-1.12 -0.42,-0.25 -0.93,-0.37 -1.53,-0.37 -0.7,0 -1.3,0.14 -1.78,0.42 -0.48,0.28 -0.85,0.69 -1.09,1.23 -0.24,0.54 -0.36,1.21 -0.36,2.01 v 6.74 c 0,0.73 0.12,1.35 0.37,1.84 0.25,0.5 0.62,0.87 1.11,1.13 0.49,0.26 1.1,0.39 1.82,0.39 0.7,0 1.29,-0.13 1.76,-0.4 0.47,-0.27 0.82,-0.67 1.06,-1.2 0.24,-0.53 0.36,-1.2 0.36,-2.01 v -2.16 h -3.18 v -1.51 h 4.88 z"
   id="path1120" /><rect
   x="0"
   y="4.73"
   class="st1"
   width="2.3599999"
   height="2.3599999"
   id="rect1122" /><rect
   x="0"
   y="37.779999"
   class="st1"
   width="2.3599999"
   height="2.3599999"
   id="rect1124" /><rect
   x="40.150002"
   y="4.73"
   class="st1"
   width="2.3599999"
   height="2.3599999"
   id="rect1126" /><rect
   x="40.18"
   y="37.779999"
   class="st1"
   width="2.3599999"
   height="2.3599999"
   id="rect1128" /><rect
   x="40.150002"
   y="18.9"
   class="st1"
   width="2.3599999"
   height="2.3599999"
   id="rect1130" /><rect
   x="0"
   y="18.9"
   class="st1"
   width="2.3599999"
   height="2.3599999"
   id="rect1132" />
</svg>
